<?xml version="1.0" encoding="UTF-8" standalone="no"?>
<svg width="24px" height="24px" viewBox="0 0 24 24" version="1.1" xmlns="http://www.w3.org/2000/svg" xmlns:xlink="http://www.w3.org/1999/xlink">
    <!-- Generator: Sketch 3.8.3 (29802) - http://www.bohemiancoding.com/sketch -->
    <title>instagram</title>
    <desc>Created with Sketch.</desc>
    <defs></defs>
    <g id="Page-1" stroke="none" stroke-width="1" fill="none" fill-rule="evenodd">
        <path d="M0,6.92569002 C0,3.10073704 3.11297648,0 6.92569002,0 L17.07431,0 C20.899263,0 24,3.11297648 24,6.92569002 L24,17.07431 C24,20.899263 20.8870235,24 17.07431,24 L6.92569002,24 C3.10073704,24 0,20.8870235 0,17.07431 L0,6.92569002 Z M2,6.9695174 C2,4.22492873 4.21676588,2 6.9695174,2 L17.0304826,2 C19.7750713,2 22,4.21676588 22,6.9695174 L22,17.0304826 C22,19.7750713 19.7832341,22 17.0304826,22 L6.9695174,22 C4.22492873,22 2,19.7832341 2,17.0304826 L2,6.9695174 Z M12,18 C15.3137085,18 18,15.3137085 18,12 C18,8.6862915 15.3137085,6 12,6 C8.6862915,6 6,8.6862915 6,12 C6,15.3137085 8.6862915,18 12,18 Z M12,16 C14.209139,16 16,14.209139 16,12 C16,9.790861 14.209139,8 12,8 C9.790861,8 8,9.790861 8,12 C8,14.209139 9.790861,16 12,16 Z M19,7 C19.3284271,7 20,6.32842712 20,6 C20,4.67157288 19.3284271,4 19,4 C17.6715729,4 17,4.67157288 17,6 C17,6.32842712 17.6715729,7 19,7 Z" id="instagram" fill="#C7C7CC"></path>
    </g>
</svg>