<?xml version="1.0" encoding="UTF-8" standalone="no"?>
<svg width="43px" height="53px" viewBox="0 0 43 53" version="1.1" xmlns="http://www.w3.org/2000/svg" xmlns:xlink="http://www.w3.org/1999/xlink">
    <!-- Generator: Sketch 3.8.3 (29802) - http://www.bohemiancoding.com/sketch -->
    <title>Logo</title>
    <desc>Created with Sketch.</desc>
    <defs></defs>
    <g id="Store" stroke="none" stroke-width="1" fill="none" fill-rule="evenodd">
        <g id="Store-Item-Page" transform="translate(-40.000000, -60.000000)" fill="#000000">
            <g id="Header" transform="translate(40.000000, 60.000000)">
                <path d="M43,46.0639691 C43,47.7429956 41.7862501,48.5405058 40.3887954,47.6388356 C40.3887954,47.6388356 40.8335346,48.2502964 40.0307103,47.2827979 C39.227886,46.3152994 17.87122,17.4497405 17.87122,17.4497405 C17.3733124,16.7768914 15.8280863,16.318314 15.8332267,18.6856774 L15.8280857,36.805345 L15.8280857,44.9968074 C15.7979979,46.9092532 15.257144,48.9243298 13.5088496,50.5212821 C11.7564857,52.0289925 10.1737532,52.9107894 6.65929204,52.9977707 C3.30852175,53.0800386 0.0546571176,50.8800258 0,47.2827969 C0.0140743352,46.213062 0.121901772,43.9905829 1.52212389,42.5203188 C3.07699771,40.9812978 5.94400721,40.2081751 7.03982301,40.0438302 C8.82608082,39.6930293 9.45410112,39.6579055 11.2256637,39.0913345 C12.8512083,38.5091246 12.8395208,36.7400614 12.8592765,36.805345 L12.8592765,17.3744343 L12.8592771,6.34975332 C12.8592772,5.51456272 13.46006,4.54378705 14.2047,4.17973603 L14.4826635,4.043841 C15.22572,3.68056415 16.2279751,3.93824142 16.718174,4.61511393 L39.9824561,36.7387142 L39.9824561,1.50363339 C39.9824561,0.673199599 40.6521469,0 41.4912281,0 C42.3244998,0 43,0.675535917 43,1.50363339 L43,38.0937126 L43,46.0639691 Z" id="Logo" transform="translate(21.500000, 26.500000) scale(-1, 1) translate(-21.500000, -26.500000) "></path>
            </g>
        </g>
    </g>
</svg>