<?xml version="1.0" encoding="UTF-8" standalone="no"?>
<svg width="24px" height="20px" viewBox="0 0 24 20" version="1.1" xmlns="http://www.w3.org/2000/svg" xmlns:xlink="http://www.w3.org/1999/xlink">
    <!-- Generator: Sketch 3.8.3 (29802) - http://www.bohemiancoding.com/sketch -->
    <title>twitter</title>
    <desc>Created with Sketch.</desc>
    <defs></defs>
    <g id="Page-1" stroke="none" stroke-width="1" fill="none" fill-rule="evenodd">
        <path d="M24,2.36764175 C23.1181546,2.76923077 22.1686917,3.04080896 21.1727417,3.1621524 C22.1898222,2.5381004 22.9702412,1.54857349 23.3379116,0.369808595 C22.3856313,0.947634525 21.3333333,1.36800289 20.2091918,1.593355 C19.3132594,0.612495486 18.0327522,0 16.6156013,0 C13.8982215,0 11.693608,2.26074395 11.693608,5.04875406 C11.693608,5.44456482 11.735869,5.82881907 11.8203909,6.19862766 C7.72812115,5.9877212 4.10072196,3.97977609 1.67071668,0.921632358 C1.24669836,1.66991694 1.00440218,2.5381004 1.00440218,3.46262189 C1.00440218,5.21343445 1.87356929,6.75911882 3.19492868,7.66486096 C2.38915302,7.64030336 1.62845571,7.41061755 0.963549921,7.0350307 L0.963549921,7.09714698 C0.963549921,9.5442398 2.66103187,11.5854099 4.91494982,12.0476706 C4.50220109,12.166125 4.06691319,12.2253521 3.6175383,12.2253521 C3.30058109,12.2253521 2.99066737,12.1950163 2.69061454,12.1357891 C3.31748547,14.1408451 5.13470681,15.6013001 7.29001585,15.6403034 C5.60521219,16.9953052 3.48089452,17.8028169 1.17485473,17.8028169 C0.77760169,17.8028169 0.384574749,17.7797039 0,17.7334778 C2.17925691,19.163597 4.76844515,20 7.54780771,20 C16.6057404,20 21.5573164,12.3076923 21.5573164,5.63524738 C21.5573164,5.41567353 21.5530903,5.19609967 21.5446381,4.98085952 C22.5067794,4.26868906 23.3421377,3.38028169 24,2.36764175" id="twitter" fill="#C7C7CC"></path>
    </g>
</svg>