<?xml version="1.0" encoding="UTF-8" standalone="no"?>
<svg width="33px" height="21px" viewBox="0 0 33 21" version="1.1" xmlns="http://www.w3.org/2000/svg" xmlns:xlink="http://www.w3.org/1999/xlink">
    <!-- Generator: Sketch 3.8.3 (29802) - http://www.bohemiancoding.com/sketch -->
    <title>GooglePlus</title>
    <desc>Created with Sketch.</desc>
    <defs></defs>
    <g id="Store" stroke="none" stroke-width="1" fill="none" fill-rule="evenodd">
        <g id="Store-Item-Page" transform="translate(-540.000000, -1645.000000)" fill="#C7C7CC">
            <g id="Group" transform="translate(254.000000, 1376.000000)">
                <g id="Social-Media" transform="translate(174.000000, 267.000000)">
                    <path d="M141.367925,10.6287129 L141.367925,6.99009901 L138.773585,6.99009901 L138.773585,10.6287129 L135.037736,10.6287129 L135.037736,13.2277228 L138.773585,13.2277228 L138.773585,16.970297 L141.367925,16.970297 L141.367925,13.2277228 L145,13.2277228 L145,10.6287129 L141.367925,10.6287129 L141.367925,10.6287129 Z M122.481132,10.4207921 L122.481132,14.5792079 C122.481132,14.5792079 126.507962,14.573802 128.147585,14.573802 C127.259698,17.269599 125.879094,18.7376238 122.481132,18.7376238 C119.042387,18.7376238 116.358491,15.9449356 116.358491,12.5 C116.358491,9.05506436 119.042387,6.26237624 122.481132,6.26237624 C124.299245,6.26237624 125.473443,6.90256436 126.550509,7.79485644 C127.41266,6.93115347 127.340642,6.80806436 129.534104,4.73291089 C127.672094,3.0350297 125.197302,2 122.481132,2 C116.692538,2 112,6.70098515 112,12.5 C112,18.2989109 116.692538,23 122.481132,23 C131.133462,23 133.248264,15.4524752 132.54717,10.4207921 L122.481132,10.4207921 L122.481132,10.4207921 Z" id="GooglePlus"></path>
                </g>
            </g>
        </g>
    </g>
</svg>