<?xml version="1.0" encoding="UTF-8" standalone="no"?>
<svg width="24px" height="20px" viewBox="0 0 24 20" version="1.1" xmlns="http://www.w3.org/2000/svg" xmlns:xlink="http://www.w3.org/1999/xlink">
    <!-- Generator: Sketch 3.8.3 (29802) - http://www.bohemiancoding.com/sketch -->
    <title>Twitter</title>
    <desc>Created with Sketch.</desc>
    <defs></defs>
    <g id="Store" stroke="none" stroke-width="1" fill="none" fill-rule="evenodd">
        <g id="Store-Item-Page" transform="translate(-484.000000, -1645.000000)" fill="#C7C7CC">
            <g id="Group" transform="translate(254.000000, 1376.000000)">
                <g id="Social-Media" transform="translate(174.000000, 267.000000)">
                    <path d="M80,4.36764175 C79.1181546,4.76923077 78.1686917,5.04080896 77.1727417,5.1621524 C78.1898222,4.5381004 78.9702412,3.54857349 79.3379116,2.3698086 C78.3856313,2.94763453 77.3333333,3.36800289 76.2091918,3.593355 C75.3132594,2.61249549 74.0327522,2 72.6156013,2 C69.8982215,2 67.693608,4.26074395 67.693608,7.04875406 C67.693608,7.44456482 67.735869,7.82881907 67.8203909,8.19862766 C63.7281211,7.9877212 60.100722,5.97977609 57.6707167,2.92163236 C57.2466984,3.66991694 57.0044022,4.5381004 57.0044022,5.46262189 C57.0044022,7.21343445 57.8735693,8.75911882 59.1949287,9.66486096 C58.389153,9.64030336 57.6284557,9.41061755 56.9635499,9.0350307 L56.9635499,9.09714698 C56.9635499,11.5442398 58.6610319,13.5854099 60.9149498,14.0476706 C60.5022011,14.166125 60.0669132,14.2253521 59.6175383,14.2253521 C59.3005811,14.2253521 58.9906674,14.1950163 58.6906145,14.1357891 C59.3174855,16.1408451 61.1347068,17.6013001 63.2900158,17.6403034 C61.6052122,18.9953052 59.4808945,19.8028169 57.1748547,19.8028169 C56.7776017,19.8028169 56.3845747,19.7797039 56,19.7334778 C58.1792569,21.163597 60.7684451,22 63.5478077,22 C72.6057404,22 77.5573164,14.3076923 77.5573164,7.63524738 C77.5573164,7.41567353 77.5530903,7.19609967 77.5446381,6.98085952 C78.5067794,6.26868906 79.3421377,5.38028169 80,4.36764175" id="Twitter"></path>
                </g>
            </g>
        </g>
    </g>
</svg>