<?xml version="1.0" encoding="UTF-8" standalone="no"?>
<svg width="24px" height="24px" viewBox="0 0 24 24" version="1.1" xmlns="http://www.w3.org/2000/svg" xmlns:xlink="http://www.w3.org/1999/xlink">
    <!-- Generator: Sketch 3.8.3 (29802) - http://www.bohemiancoding.com/sketch -->
    <title>facebook</title>
    <desc>Created with Sketch.</desc>
    <defs></defs>
    <g id="Page-1" stroke="none" stroke-width="1" fill="none" fill-rule="evenodd">
        <path d="M1.32461576,24 C0.592836328,24 0,23.4067958 0,22.6753014 L0,1.32460548 C0,0.592924852 0.592929454,0 1.32461576,0 L22.6754774,0 C23.4069774,0 24,0.592924852 24,1.32460548 L24,22.6753014 C24,23.4068889 23.4068843,24 22.6754774,24 L16.5596526,24 L16.5596523,14.6257466 L19.6792603,14.6257466 L20.1463773,11.0036621 L16.5596523,11.0036621 L16.5596526,8.7713207 C16.5596526,7.72264365 16.8508558,7.00800484 18.3546448,7.00800484 L20.2726557,7.00716672 L20.2726557,3.76754527 C19.940943,3.72340417 18.8023918,3.62478513 17.477776,3.62478513 C14.7124171,3.62478513 12.8191776,5.31276313 12.8191776,8.41260443 L12.8191773,11.0036621 L9.69156058,11.0036621 L9.69156058,14.6257466 L12.8191773,14.6257466 L12.8191776,24 L1.32461576,24 Z" id="facebook" fill="#C7C7CC"></path>
    </g>
</svg>